<?xml version="1.0" encoding="UTF-8" standalone="no"?>
<!-- Created with Inkscape (http://www.inkscape.org/) -->

<svg
   width="300"
   height="300"
   viewBox="0 0 79.375 79.375"
   version="1.1"
   id="svg5"
   xmlns="http://www.w3.org/2000/svg"
   xmlns:svg="http://www.w3.org/2000/svg">
  <defs
     id="defs2" />
  <g
     id="layer1">
    <rect
       style="fill:#ff00ff;fill-rule:evenodd;stroke-width:0.265103"
       id="rect31"
       width="14.446129"
       height="79.220711"
       x="-0.15533473"
       y="-4.4428123e-09" />
    <rect
       style="fill:#ff5555;fill-rule:evenodd;stroke-width:0.309795"
       id="rect31-0"
       width="19.727509"
       height="79.220711"
       x="14.290794"
       y="-7.1054274e-15" />
    <rect
       style="fill:#6c5353;fill-rule:evenodd;stroke-width:0.211154"
       id="rect31-0-8"
       width="9.1647482"
       height="79.220711"
       x="34.018303"
       y="-1.9073486e-06" />
    <rect
       style="fill:#ff6600;fill-rule:evenodd;stroke-width:0.294797"
       id="rect31-0-8-8"
       width="17.863493"
       height="79.220711"
       x="43.183052"
       y="-7.1054274e-15" />
    <rect
       style="fill:#917c6f;fill-rule:evenodd;stroke-width:0.306115"
       id="rect31-0-8-8-8"
       width="19.261505"
       height="79.220711"
       x="60.580544"
       y="0.15533854" />
    <circle
       style="fill:#ffffff;stroke-width:0.196222"
       id="path451"
       cx="39.144352"
       cy="38.212345"
       r="24.076883" />
    <circle
       id="path810"
       style="fill:#ffffff;stroke:#000000;stroke-width:0.264583"
       cx="38.678349"
       cy="39.299686"
       r="0.020690436" />
    <g
       data-name="Layer 11"
       id="Layer_11"
       transform="matrix(0.01832001,2.3336711,-2.3336711,0.01832001,76.811308,0.42515034)">
      <path
         class="cls-1"
         d="M 16,5 A 11,11 0 1 0 27,16 11,11 0 0 0 16,5 Z m 0,20 a 9,9 0 1 1 9,-9 9,9 0 0 1 -9,9 z"
         id="path1077" />
      <polygon
         class="cls-1"
         points="15,8.83 15,15 9.33,15 9.33,17 17,17 17,8.83 "
         id="polygon1079" />
    </g>
  </g>
</svg>
